<?xml version="1.0" standalone="no"?>
<!DOCTYPE svg PUBLIC "-//W3C//DTD SVG 20010904//EN"
 "http://www.w3.org/TR/2001/REC-SVG-20010904/DTD/svg10.dtd">
<svg version="1.0" xmlns="http://www.w3.org/2000/svg"
 width="552.000000pt" height="406.000000pt" viewBox="0 0 552.000000 406.000000"
 preserveAspectRatio="xMidYMid meet">

<g transform="translate(0.000000,406.000000) scale(0.100000,-0.100000)"
fill="#000000" stroke="none">
<path d="M0 2030 l0 -2030 2760 0 2760 0 0 2030 0 2030 -1382 -1 -1383 0 1310
-309 c721 -170 1320 -312 1333 -315 25 -6 30 -25 6 -25 -9 0 -609 140 -1334
310 -725 171 -1321 310 -1325 310 -3 0 -3 -545 1 -1211 l7 -1211 -44 4 c-88 8
-2679 633 -2679 646 0 6 3 12 7 12 3 0 600 -141 1327 -314 727 -173 1329 -316
1340 -318 18 -3 18 20 17 767 0 424 -4 969 -8 1213 l-6 442 -1354 0 -1353 0 0
-2030z m655 1031 l100 -6 0 -30 0 -30 -105 -8 c-58 -5 -108 -12 -112 -16 -4
-4 -11 -118 -14 -254 l-7 -247 -37 0 -37 0 -7 53 c-3 28 -6 138 -6 243 0 147
-3 194 -13 203 -8 6 -59 14 -115 17 l-102 7 0 33 0 33 93 4 c158 5 258 5 362
-2z m838 -1 l137 0 0 -35 0 -35 -57 -1 c-32 -1 -121 -4 -198 -8 l-140 -6 -3
-66 c-2 -49 1 -69 12 -78 10 -8 73 -15 183 -19 l168 -7 3 -31 c3 -29 0 -32
-35 -37 -21 -4 -93 -7 -160 -7 -67 0 -133 -4 -148 -10 -25 -10 -26 -12 -23
-87 l3 -78 45 -7 c25 -3 116 -7 203 -7 l157 -1 0 -34 c0 -31 -3 -34 -37 -40
-64 -10 -433 -7 -454 4 -18 10 -19 24 -19 288 0 152 4 282 8 289 9 15 70 22
152 17 36 -2 127 -4 203 -4z m629 -27 c14 -16 71 -89 128 -163 150 -197 189
-234 204 -194 3 8 9 98 12 200 l7 184 38 0 c24 0 39 -5 43 -16 3 -9 6 -139 6
-289 0 -261 -1 -275 -19 -285 -25 -13 -67 -13 -91 0 -10 5 -72 80 -138 167
-66 87 -138 175 -160 197 l-40 38 -13 -23 c-8 -16 -14 -86 -17 -201 l-5 -178
-43 0 -44 0 0 288 c0 159 3 292 7 295 3 4 27 7 53 7 38 0 51 -5 72 -27z m1329
17 c18 -10 19 -24 19 -290 0 -240 -2 -281 -16 -294 -19 -19 -35 -20 -56 -3
-13 10 -17 43 -20 200 -3 124 -9 192 -16 199 -17 17 -63 -31 -194 -202 -152
-198 -164 -210 -207 -210 -20 0 -42 4 -49 8 -9 7 -12 73 -10 298 l3 289 38 3
c20 2 37 2 38 0 1 -2 4 -92 8 -200 4 -109 11 -202 17 -208 14 -14 71 48 214
235 67 88 129 166 138 173 19 15 66 16 93 2z m791 -135 c4 -77 4 -210 0 -295
l-7 -155 -247 -3 c-149 -1 -248 1 -248 7 0 5 -2 15 -5 23 -3 7 -1 20 5 28 7
12 47 16 207 20 l198 5 3 79 c2 48 -1 83 -8 90 -7 7 -78 13 -183 16 l-172 5
-3 29 c-2 16 2 32 10 37 7 5 78 9 158 10 200 1 194 -1 198 84 2 48 -1 71 -10
76 -7 5 -85 9 -173 10 -183 2 -218 7 -223 32 -9 47 -8 48 250 45 l243 -3 7
-140z m772 73 c3 -29 6 -138 6 -243 0 -104 4 -196 8 -202 5 -8 47 -15 115 -19
l107 -7 0 -32 0 -32 -177 -6 c-98 -4 -223 -3 -278 1 l-100 7 0 30 0 30 105 8
c58 5 108 12 112 15 4 4 10 119 14 255 l7 247 37 0 37 0 7 -52z m-4052 -235
c21 -18 24 -53 6 -71 -20 -20 -76 -15 -88 7 -14 28 -13 38 10 61 24 24 47 25
72 3z m900 0 c21 -18 24 -53 6 -71 -20 -20 -76 -15 -88 7 -14 28 -13 38 10 61
24 24 47 25 72 3z m1792 1 c19 -18 21 -55 4 -72 -20 -20 -65 -14 -82 10 -20
29 -20 34 4 58 24 24 53 26 74 4z m896 -4 c38 -38 15 -84 -40 -78 -28 2 -37 9
-45 32 -8 24 -6 31 14 47 30 24 46 24 71 -1z m-3614 -1321 c189 -26 307 -109
365 -256 20 -50 23 -76 23 -188 0 -112 -3 -138 -23 -187 -29 -74 -104 -156
-178 -195 -103 -54 -177 -64 -455 -61 -135 2 -250 7 -255 11 -10 11 -17 661
-8 784 7 90 7 92 33 96 60 9 426 6 498 -4z m2137 5 l77 -7 0 -47 c0 -47 0 -47
-37 -54 -21 -3 -128 -6 -238 -7 -110 -1 -227 -4 -260 -8 l-60 -6 0 -105 c0
-105 0 -105 28 -118 19 -9 91 -15 230 -18 111 -3 221 -7 245 -10 l42 -5 0 -44
c0 -24 -4 -47 -10 -50 -5 -3 -122 -9 -260 -14 -214 -7 -254 -10 -268 -24 -13
-14 -16 -38 -17 -123 0 -138 -6 -134 184 -134 80 0 210 -3 289 -7 l142 -6 0
-48 0 -48 -42 -6 c-59 -9 -695 -2 -704 8 -11 10 -17 664 -7 777 8 89 9 95 33
101 32 9 534 11 633 3z m1251 -61 c16 -32 61 -128 101 -213 138 -298 188 -390
211 -390 21 0 72 92 193 353 66 142 127 269 136 283 13 21 23 24 70 24 43 0
55 -3 55 -15 0 -20 -26 -82 -182 -430 -202 -450 -199 -445 -270 -445 -68 0
-73 5 -136 138 -72 153 -274 602 -302 673 -30 76 -29 79 38 79 l58 0 28 -57z
m1096 -1258 c0 -13 -306 -15 -2695 -15 -2389 0 -2695 2 -2695 15 0 13 306 15
2695 15 2389 0 2695 -2 2695 -15z"/>
<path d="M605 1313 c-22 -2 -46 -11 -52 -20 -10 -13 -13 -91 -13 -309 0 -253
2 -295 16 -308 22 -23 347 -23 421 -1 126 38 209 142 220 276 15 184 -77 315
-246 353 -66 15 -236 19 -346 9z"/>
</g>
</svg>
